<svg width="308" height="270" viewBox="0 0 308 270" fill="none" xmlns="http://www.w3.org/2000/svg">
<path d="M301.367 138.735C301.367 201.782 249.594 262.209 154.227 262.209C106.345 262.209 69.5835 249.277 44.8363 227.535C20.1286 205.829 7.08685 175.074 7.08685 138.735C7.08685 71.0754 72.3759 17.3185 154.227 17.3185C236.077 17.3185 301.367 71.0754 301.367 138.735Z" fill="#D1D2D7" stroke="black" stroke-width="6.1737"/>
<g filter="url(#filter0_f_2_445)">
<ellipse cx="154.344" cy="141.4" rx="66.8818" ry="56.5923" fill="#676575"/>
</g>
<path d="M281.817 75.0329C285.589 63.3715 290.871 34.9039 281.817 14.3249C270.498 -11.3989 219.051 29.7591 211.848 40.0486" stroke="black" stroke-width="6.1737" stroke-linecap="round"/>
<path d="M253.006 58.5699C262.267 54.4541 266.383 48.9962 250.948 50.3383C235.514 51.6804 228.311 51.3673 233.456 40.0488C238.427 29.1127 262.29 10.1717 274.416 7.35742" stroke="black" stroke-width="6.1737" stroke-linecap="round" stroke-linejoin="round"/>
<path d="M27.3263 75.0329C23.5534 63.3715 18.2715 34.9039 27.3263 14.3249C38.6447 -11.3989 90.0922 29.7591 97.2948 40.0486" stroke="black" stroke-width="6.1737" stroke-linecap="round"/>
<path d="M56.1366 58.5699C46.8761 54.4541 42.7603 48.9962 58.1945 50.3383C73.6288 51.6804 80.8314 51.3673 75.6867 40.0488C70.7157 29.1127 46.853 10.1717 34.7273 7.35742" stroke="black" stroke-width="6.1737" stroke-linecap="round" stroke-linejoin="round"/>
<path d="M260.338 10.3691C239.017 17.1491 218.968 35.9419 211.608 44.4908C207.158 49.2117 206.117 61.8441 206.153 67.5702H253.796C253.695 65.6875 253.127 61.8092 251.667 61.3573C249.843 60.7925 249.104 57.0995 251.103 56.1003C253.101 55.101 258.445 52.7114 257.359 52.7114C256.49 52.7114 249.582 53.4062 246.237 53.7537C242.622 54.2747 238.063 53.9708 236.235 53.7537C231.501 52.8559 229.516 50.178 229.115 48.9513C225.814 35.8377 248.555 17.7659 260.338 10.3691Z" fill="#D1D2D7"/>
<path d="M48.8051 10.3691C70.1257 17.1491 90.175 35.9419 97.5345 44.4908C101.985 49.2117 103.026 61.8441 102.99 67.5702H55.3465C55.4479 65.6875 56.0156 61.8092 57.4754 61.3573C59.3002 60.7925 60.0388 57.0995 58.0402 56.1003C56.0417 55.101 50.6977 52.7114 51.7839 52.7114C52.6528 52.7114 59.5609 53.4062 62.9063 53.7537C66.5211 54.2747 71.0803 53.9708 72.908 53.7537C77.6416 52.8559 79.6268 50.178 80.0277 48.9513C83.3284 35.8377 60.5879 17.7659 48.8051 10.3691Z" fill="#D1D2D7"/>
<path d="M282.792 28.0895C285.746 46.8037 282.55 73.8353 280.011 70.2802C277.471 66.7251 268.637 57.5019 264.167 53.4231C264.785 50.426 262.719 48.8669 261.728 48.3911C259.73 46.726 253.205 47.0403 250.073 47.4764C238.846 48.2852 235.524 47.417 235.266 46.8818C233.338 45.0392 237.534 38.4039 239.636 35.8468C252.84 19.7765 267.517 12.688 274.812 10.3691C278.855 11.7963 281.882 22.7385 282.792 28.0895Z" fill="#F9ADAD"/>
<path d="M26.3512 28.0895C23.3965 46.8037 26.5928 73.8353 29.1322 70.2802C31.6715 66.7251 40.5055 57.5019 44.9759 53.4231C44.3575 50.426 46.4239 48.8669 47.4151 48.3911C49.4132 46.726 55.9377 47.0403 59.0696 47.4764C70.297 48.2852 73.6192 47.417 73.8768 46.8818C75.8048 45.0392 71.6084 38.4039 69.5073 35.8468C56.3024 19.7765 41.6257 12.688 34.3313 10.3691C30.2875 11.7963 27.2606 22.7385 26.3512 28.0895Z" fill="#F9ADAD"/>
<circle cx="90.679" cy="108.895" r="30.8685" fill="#DBEEFF"/>
<circle cx="93.6791" cy="111.895" r="25.2269" fill="#84AAD7"/>
<circle cx="96.6792" cy="114.895" r="20.1179" fill="#231616"/>
<circle cx="103.963" cy="92.4169" r="6.83389" fill="white"/>
<circle cx="218.464" cy="108.895" r="30.8685" fill="#DBEEFF"/>
<circle cx="221.464" cy="112.895" r="25.2269" fill="#84AAD7"/>
<circle cx="224.464" cy="114.895" r="20.1179" fill="#231616"/>
<circle cx="231.748" cy="92.4169" r="6.83389" fill="white"/>
<path d="M154.502 139.909C153.542 146.437 156.115 159.493 174.086 159.493" stroke="black" stroke-width="6.1737" stroke-linecap="round"/>
<path d="M153.951 139.909C154.911 146.437 152.338 159.493 134.367 159.493" stroke="black" stroke-width="6.1737" stroke-linecap="round"/>
<path d="M167.358 135.274C159.835 140.956 149.502 141.126 141.795 135.695L139.935 134.384C139.295 133.933 138.729 133.384 138.259 132.758C134.542 127.811 138.071 120.745 144.258 120.745L164.188 120.745C170.522 120.745 174.012 128.103 170.004 133.008C169.625 133.472 169.192 133.888 168.715 134.249L167.358 135.274Z" fill="#202329" stroke="black" stroke-width="6.1737"/>
<defs>
<filter id="filter0_f_2_445" x="46.3039" y="43.6501" width="216.079" height="195.501" filterUnits="userSpaceOnUse" color-interpolation-filters="sRGB">
<feFlood flood-opacity="0" result="BackgroundImageFix"/>
<feBlend mode="normal" in="SourceGraphic" in2="BackgroundImageFix" result="shape"/>
<feGaussianBlur stdDeviation="20.579" result="effect1_foregroundBlur_2_445"/>
</filter>
</defs>
</svg>
