<svg width="308" height="270" viewBox="0 0 308 270" fill="none" xmlns="http://www.w3.org/2000/svg">
<path d="M301.367 138.735C301.367 201.782 249.594 262.209 154.227 262.209C106.345 262.209 69.5835 249.277 44.8363 227.535C20.1286 205.829 7.08685 175.074 7.08685 138.735C7.08685 71.0753 72.3759 17.3184 154.227 17.3184C236.077 17.3184 301.367 71.0753 301.367 138.735Z" fill="#D1D2D7" stroke="black" stroke-width="6.1737"/>
<g filter="url(#filter0_f_2_61)">
<ellipse cx="154.344" cy="141.4" rx="66.8818" ry="56.5923" fill="#676575"/>
</g>
<path d="M281.816 75.0329C285.589 63.3715 290.871 34.9039 281.816 14.3249C270.498 -11.3989 219.051 29.7591 211.848 40.0486" stroke="black" stroke-width="6.1737" stroke-linecap="round"/>
<path d="M253.006 58.57C262.267 54.4542 266.382 48.9963 250.948 50.3384C235.514 51.6805 228.311 51.3674 233.456 40.0489C238.427 29.1129 262.29 10.1718 274.415 7.35754" stroke="black" stroke-width="6.1737" stroke-linecap="round" stroke-linejoin="round"/>
<path d="M27.3263 75.0329C23.5534 63.3715 18.2715 34.9039 27.3263 14.3249C38.6447 -11.3989 90.0922 29.7591 97.2948 40.0486" stroke="black" stroke-width="6.1737" stroke-linecap="round"/>
<path d="M56.1366 58.57C46.8761 54.4542 42.7603 48.9963 58.1945 50.3384C73.6288 51.6805 80.8314 51.3674 75.6867 40.0489C70.7157 29.1129 46.853 10.1718 34.7273 7.35754" stroke="black" stroke-width="6.1737" stroke-linecap="round" stroke-linejoin="round"/>
<path d="M260.338 10.369C239.017 17.1489 218.968 35.9418 211.608 44.4907C207.158 49.2116 206.117 61.844 206.153 67.5701H253.796C253.695 65.6874 253.127 61.8091 251.667 61.3572C249.843 60.7924 249.104 57.0994 251.102 56.1001C253.101 55.1009 258.445 52.7113 257.359 52.7113C256.49 52.7113 249.582 53.4061 246.236 53.7536C242.622 54.2746 238.062 53.9706 236.235 53.7536C231.501 52.8558 229.516 50.1779 229.115 48.9511C225.814 35.8376 248.555 17.7658 260.338 10.369Z" fill="#D1D2D7"/>
<path d="M48.8051 10.369C70.1257 17.1489 90.175 35.9418 97.5345 44.4907C101.985 49.2116 103.026 61.844 102.99 67.5701H55.3465C55.4479 65.6874 56.0156 61.8091 57.4754 61.3572C59.3002 60.7924 60.0388 57.0994 58.0402 56.1001C56.0417 55.1009 50.6977 52.7113 51.7839 52.7113C52.6528 52.7113 59.5609 53.4061 62.9063 53.7536C66.5211 54.2746 71.0803 53.9706 72.908 53.7536C77.6416 52.8558 79.6268 50.1779 80.0277 48.9511C83.3284 35.8376 60.5879 17.7658 48.8051 10.369Z" fill="#D1D2D7"/>
<path d="M282.792 28.0894C285.746 46.8036 282.55 73.8352 280.011 70.2801C277.471 66.725 268.637 57.5018 264.167 53.423C264.785 50.4259 262.719 48.8667 261.728 48.391C259.73 46.7259 253.205 47.0402 250.073 47.4763C238.846 48.2851 235.524 47.4169 235.266 46.8816C233.338 45.0391 237.534 38.4038 239.636 35.8467C252.84 19.7764 267.517 12.6879 274.812 10.369C278.855 11.7962 281.882 22.7384 282.792 28.0894Z" fill="#F9ADAD"/>
<path d="M26.3511 28.0894C23.3964 46.8036 26.5927 73.8352 29.132 70.2801C31.6714 66.725 40.5054 57.5018 44.9758 53.423C44.3574 50.4259 46.4238 48.8667 47.4149 48.391C49.413 46.7259 55.9376 47.0402 59.0695 47.4763C70.2969 48.2851 73.619 47.4169 73.8767 46.8816C75.8047 45.0391 71.6083 38.4038 69.5072 35.8467C56.3023 19.7764 41.6256 12.6879 34.3312 10.369C30.2874 11.7962 27.2605 22.7384 26.3511 28.0894Z" fill="#F9ADAD"/>
<circle cx="90.679" cy="108.895" r="30.8685" fill="#DBEEFF"/>
<circle cx="90.6791" cy="104.895" r="25.2269" fill="#84AAD7"/>
<circle cx="90.6792" cy="100.895" r="20.1179" fill="#231616"/>
<circle cx="109.963" cy="95.4166" r="6.83389" fill="white"/>
<circle cx="218.464" cy="108.895" r="30.8685" fill="#DBEEFF"/>
<circle cx="218.464" cy="104.895" r="25.2269" fill="#84AAD7"/>
<circle cx="218.464" cy="99.8951" r="20.1179" fill="#231616"/>
<circle cx="237.748" cy="95.4166" r="6.83389" fill="white"/>
<path d="M154.502 139.909C153.542 146.437 156.115 159.493 174.086 159.493" stroke="black" stroke-width="6.1737" stroke-linecap="round"/>
<path d="M153.951 139.909C154.911 146.437 152.338 159.493 134.367 159.493" stroke="black" stroke-width="6.1737" stroke-linecap="round"/>
<path d="M167.358 135.274C159.835 140.956 149.502 141.126 141.795 135.695L139.935 134.384C139.295 133.933 138.729 133.384 138.259 132.758C134.542 127.811 138.071 120.745 144.258 120.745L164.188 120.745C170.522 120.745 174.012 128.103 170.004 133.008C169.625 133.472 169.192 133.888 168.715 134.249L167.358 135.274Z" fill="#202329" stroke="black" stroke-width="6.1737"/>
<defs>
<filter id="filter0_f_2_61" x="46.304" y="43.6501" width="216.08" height="195.5" filterUnits="userSpaceOnUse" color-interpolation-filters="sRGB">
<feFlood flood-opacity="0" result="BackgroundImageFix"/>
<feBlend mode="normal" in="SourceGraphic" in2="BackgroundImageFix" result="shape"/>
<feGaussianBlur stdDeviation="20.579" result="effect1_foregroundBlur_2_61"/>
</filter>
</defs>
</svg>
